<svg width="15" height="15" viewBox="0 0 15 15" fill="none" xmlns="http://www.w3.org/2000/svg">
<path d="M7.5 0C3.36454 0 0 3.36454 0 7.5C0 11.6355 3.36454 15 7.5 15C11.6355 15 15 11.6355 15 7.5C15 3.36454 11.6355 0 7.5 0ZM7.5 11.5352C7.35737 11.5352 7.21794 11.4929 7.09935 11.4137C6.98076 11.3344 6.88832 11.2218 6.83374 11.09C6.77916 10.9583 6.76488 10.8133 6.7927 10.6734C6.82053 10.5335 6.88921 10.405 6.99007 10.3041C7.09092 10.2033 7.21942 10.1346 7.35931 10.1068C7.4992 10.0789 7.6442 10.0932 7.77597 10.1478C7.90775 10.2024 8.02038 10.2948 8.09962 10.4134C8.17886 10.532 8.22115 10.6714 8.22115 10.8141C8.22115 11.0053 8.14518 11.1888 8.00993 11.324C7.87469 11.4592 7.69126 11.5352 7.5 11.5352ZM8.28317 4.28221L8.0762 8.68125C8.0762 8.83426 8.01542 8.981 7.90722 9.0892C7.79903 9.19739 7.65229 9.25817 7.49928 9.25817C7.34627 9.25817 7.19953 9.19739 7.09133 9.0892C6.98314 8.981 6.92236 8.83426 6.92236 8.68125L6.71538 4.28438V4.28257C6.71085 4.1769 6.72775 4.0714 6.76506 3.97242C6.80237 3.87345 6.85933 3.78305 6.9325 3.70667C7.00567 3.63029 7.09354 3.56951 7.19082 3.52799C7.28811 3.48647 7.39279 3.46506 7.49856 3.46506C7.60433 3.46506 7.70901 3.48647 7.80629 3.52799C7.90357 3.56951 7.99144 3.63029 8.06462 3.70667C8.13779 3.78305 8.19474 3.87345 8.23206 3.97242C8.26937 4.0714 8.28627 4.1769 8.28173 4.28257L8.28317 4.28221Z" fill="#F54949"/>
</svg>
