<svg width="20" height="18" viewBox="0 0 20 18" fill="none" xmlns="http://www.w3.org/2000/svg">
<path d="M17.3318 17.9864C17.2442 17.9866 17.1575 17.9672 17.0766 17.9295C16.9958 17.8918 16.9223 17.8364 16.8606 17.7666L2.19522 1.26658C2.07548 1.12478 2.00971 0.93597 2.01194 0.740398C2.01417 0.544827 2.08421 0.357971 2.20713 0.21967C2.33005 0.0813687 2.49613 0.00256547 2.66996 6.15385e-05C2.84378 -0.00244239 3.0116 0.0715513 3.13763 0.206266L17.803 16.7063C17.8961 16.8112 17.9596 16.9448 17.9853 17.0902C18.011 17.2356 17.9978 17.3864 17.9473 17.5234C17.8969 17.6604 17.8115 17.7775 17.702 17.8599C17.5924 17.9423 17.4636 17.9864 17.3318 17.9864Z" fill="#835AFD"/>
<path d="M9.66579 11.7919L7.50807 9.36423C7.49571 9.35044 7.47981 9.34135 7.46262 9.33824C7.44543 9.33513 7.4278 9.33816 7.41222 9.3469C7.39664 9.35564 7.38388 9.36965 7.37574 9.38697C7.3676 9.40429 7.36448 9.42404 7.36683 9.44345C7.45394 10.0733 7.71679 10.6556 8.11739 11.1063C8.51799 11.5571 9.03559 11.8528 9.59538 11.9508C9.61263 11.9534 9.63019 11.9499 9.64558 11.9408C9.66097 11.9316 9.67343 11.9173 9.6812 11.8997C9.68897 11.8822 9.69166 11.8624 9.6889 11.843C9.68613 11.8237 9.67805 11.8058 9.66579 11.7919Z" fill="#835AFD"/>
<path d="M10.3324 6.18095L12.4935 8.61142C12.5058 8.62541 12.5217 8.63467 12.539 8.63789C12.5563 8.64111 12.574 8.63812 12.5897 8.62935C12.6054 8.62058 12.6182 8.60647 12.6264 8.58903C12.6345 8.5716 12.6376 8.55171 12.6351 8.5322C12.5482 7.90152 12.2852 7.31832 11.8841 6.86704C11.483 6.41575 10.9646 6.11981 10.4041 6.02205C10.3867 6.01903 10.3689 6.02227 10.3533 6.03129C10.3377 6.04031 10.325 6.05466 10.317 6.07228C10.3091 6.0899 10.3063 6.1099 10.3091 6.12942C10.3118 6.14893 10.32 6.16697 10.3324 6.18095Z" fill="#835AFD"/>
<path d="M19.7899 9.80017C19.9278 9.55659 20.0007 9.27361 20 8.9848C19.9993 8.69599 19.9249 8.41348 19.7857 8.1708C18.6833 6.25267 17.253 4.6233 15.6498 3.45845C13.8737 2.16845 11.9156 1.48642 9.98576 1.48642C8.9684 1.48799 7.95795 1.67462 6.99353 2.03908C6.96654 2.04918 6.94229 2.06689 6.92311 2.09051C6.90392 2.11414 6.89042 2.1429 6.88391 2.17405C6.87739 2.2052 6.87807 2.23772 6.88588 2.26849C6.8937 2.29927 6.90838 2.32728 6.92854 2.34986L8.89669 4.56423C8.91714 4.58728 8.94257 4.60394 8.97047 4.61257C8.99838 4.6212 9.0278 4.6215 9.05585 4.61345C9.72297 4.43054 10.4207 4.44394 11.0819 4.65237C11.7431 4.8608 12.3455 5.25724 12.831 5.80352C13.3165 6.3498 13.6689 7.02752 13.8541 7.77142C14.0394 8.51533 14.0513 9.30037 13.8887 10.051C13.8817 10.0824 13.882 10.1154 13.8896 10.1468C13.8973 10.1781 13.9121 10.2066 13.9325 10.2295L16.7635 13.417C16.7929 13.4502 16.8324 13.4698 16.874 13.4719C16.9157 13.474 16.9565 13.4584 16.9885 13.4283C18.0782 12.3833 19.0225 11.1603 19.7899 9.80017Z" fill="#835AFD"/>
<path d="M9.99909 13.4864C9.39363 13.4865 8.79605 13.3318 8.25143 13.0342C7.7068 12.7366 7.22934 12.3037 6.85505 11.7683C6.48075 11.2328 6.21939 10.6088 6.09067 9.94313C5.96194 9.27749 5.96922 8.58766 6.11195 7.92564C6.11902 7.89416 6.11871 7.86115 6.11104 7.82984C6.10338 7.79853 6.08861 7.77 6.0682 7.74705L3.28345 4.61252C3.25392 4.57925 3.21437 4.55969 3.17262 4.55769C3.13087 4.55569 3.08999 4.57141 3.05805 4.60173C2.0419 5.5772 1.0999 6.76408 0.238726 8.15111C0.0879834 8.39453 0.00496344 8.68288 0.000215661 8.97952C-0.00453212 9.27615 0.0692067 9.56767 0.212062 9.81705C1.31238 11.7544 2.72808 13.3861 4.30669 14.535C6.08528 15.8302 7.99594 16.4864 9.98576 16.4864C11.0134 16.4833 12.0344 16.3007 13.0122 15.945C13.0394 15.9352 13.0639 15.9177 13.0834 15.8942C13.1029 15.8706 13.1167 15.8419 13.1234 15.8106C13.1301 15.7793 13.1296 15.7466 13.1219 15.7157C13.1141 15.6847 13.0995 15.6565 13.0792 15.6338L11.1015 13.4091C11.0811 13.3861 11.0557 13.3695 11.0279 13.3609C11.0001 13.3522 10.9707 13.3519 10.9428 13.3599C10.6338 13.4441 10.317 13.4866 9.99909 13.4864Z" fill="#835AFD"/>
</svg>
