<svg width="23" height="18" viewBox="0 0 23 18" fill="none" xmlns="http://www.w3.org/2000/svg">
<path d="M19.5 17.9864C19.4015 17.9866 19.3039 17.9672 19.2129 17.9295C19.1219 17.8918 19.0393 17.8364 18.9698 17.7666L2.46984 1.26658C2.33513 1.12478 2.26113 0.93597 2.26364 0.740398C2.26614 0.544827 2.34494 0.357971 2.48324 0.21967C2.62155 0.0813687 2.8084 0.00256547 3.00397 6.15386e-05C3.19954 -0.00244239 3.38836 0.0715513 3.53015 0.206266L20.0302 16.7063C20.135 16.8112 20.2063 16.9448 20.2353 17.0902C20.2642 17.2356 20.2493 17.3864 20.1926 17.5234C20.1358 17.6604 20.0398 17.7775 19.9165 17.8599C19.7932 17.9423 19.6483 17.9864 19.5 17.9864Z" fill="#835AFD"/>
<path d="M10.875 11.7919L8.44734 9.36423C8.43343 9.35044 8.41555 9.34135 8.39621 9.33824C8.37686 9.33513 8.35703 9.33816 8.3395 9.3469C8.32197 9.35564 8.30761 9.36965 8.29845 9.38697C8.2893 9.40429 8.28579 9.42404 8.28844 9.44345C8.38644 10.0733 8.68217 10.6556 9.13289 11.1063C9.5836 11.5571 10.166 11.8528 10.7958 11.9508C10.8152 11.9534 10.8349 11.9499 10.8523 11.9408C10.8696 11.9316 10.8836 11.9173 10.8923 11.8997C10.9011 11.8822 10.9041 11.8624 10.901 11.843C10.8979 11.8237 10.8888 11.8058 10.875 11.7919Z" fill="#835AFD"/>
<path d="M11.625 6.18095L14.0564 8.61142C14.0703 8.62541 14.0882 8.63467 14.1076 8.63789C14.1271 8.64111 14.147 8.63812 14.1647 8.62935C14.1823 8.62058 14.1968 8.60647 14.2059 8.58903C14.2151 8.5716 14.2186 8.55171 14.2158 8.5322C14.118 7.90152 13.8221 7.31832 13.3708 6.86704C12.9195 6.41575 12.3363 6.11981 11.7056 6.02205C11.6861 6.01903 11.6661 6.02227 11.6485 6.03129C11.6309 6.04031 11.6167 6.05466 11.6077 6.07228C11.5988 6.0899 11.5956 6.1099 11.5987 6.12942C11.6018 6.14893 11.611 6.16697 11.625 6.18095Z" fill="#835AFD"/>
<path d="M22.2656 9.80017C22.4208 9.55659 22.5029 9.27361 22.502 8.9848C22.5012 8.69599 22.4175 8.41348 22.2609 8.1708C21.0206 6.25267 19.4114 4.6233 17.6077 3.45845C15.6094 2.16845 13.4062 1.48642 11.235 1.48642C10.0904 1.48799 8.9535 1.67462 7.86843 2.03908C7.83807 2.04918 7.81079 2.06689 7.7892 2.09051C7.76761 2.11414 7.75242 2.1429 7.74509 2.17405C7.73776 2.2052 7.73853 2.23772 7.74732 2.26849C7.75611 2.29927 7.77263 2.32728 7.79531 2.34986L10.0097 4.56423C10.0327 4.58728 10.0613 4.60394 10.0927 4.61257C10.1241 4.6212 10.1572 4.6215 10.1887 4.61345C10.9393 4.43054 11.7244 4.44394 12.4683 4.65237C13.2122 4.86081 13.8899 5.25724 14.4362 5.80352C14.9825 6.3498 15.3789 7.02752 15.5873 7.77142C15.7958 8.51533 15.8092 9.30037 15.6262 10.051C15.6183 10.0824 15.6186 10.1154 15.6273 10.1468C15.6359 10.1781 15.6525 10.2066 15.6755 10.2295L18.8606 13.417C18.8938 13.4502 18.9381 13.4698 18.985 13.4719C19.0319 13.474 19.0778 13.4584 19.1137 13.4283C20.3398 12.3833 21.4022 11.1603 22.2656 9.80017Z" fill="#835AFD"/>
<path d="M11.25 13.4864C10.5688 13.4865 9.89645 13.3318 9.2837 13.0342C8.67094 12.7366 8.13375 12.3037 7.71263 11.7683C7.29151 11.2328 6.99745 10.6088 6.85262 9.94313C6.70779 9.27749 6.71598 8.58766 6.87656 7.92564C6.88452 7.89416 6.88417 7.86115 6.87555 7.82984C6.86692 7.79853 6.85031 7.77 6.82734 7.74705L3.69422 4.61252C3.66099 4.57926 3.61649 4.55969 3.56952 4.55769C3.52255 4.55569 3.47655 4.57141 3.44062 4.60173C2.29734 5.5772 1.2375 6.76408 0.268591 8.15111C0.0989903 8.39453 0.00558437 8.68288 0.00024264 8.97952C-0.00509909 9.27615 0.0778646 9.56767 0.238591 9.81705C1.47656 11.7544 3.06937 13.3861 4.84547 14.535C6.84656 15.8302 8.99625 16.4864 11.235 16.4864C12.3912 16.4833 13.5399 16.3007 14.64 15.945C14.6706 15.9352 14.6982 15.9177 14.7202 15.8942C14.7421 15.8706 14.7576 15.8419 14.7652 15.8106C14.7727 15.7793 14.7722 15.7466 14.7634 15.7157C14.7547 15.6847 14.7382 15.6565 14.7155 15.6338L12.4903 13.4091C12.4674 13.3861 12.4388 13.3695 12.4075 13.3609C12.3762 13.3522 12.3432 13.3519 12.3117 13.3599C11.9641 13.4441 11.6077 13.4866 11.25 13.4864Z" fill="#835AFD"/>
</svg>
