<svg width="20" height="16" viewBox="0 0 20 16" fill="none" xmlns="http://www.w3.org/2000/svg">
<path d="M10.0008 10.9868C11.4735 10.9868 12.6674 9.64367 12.6674 7.98682C12.6674 6.32996 11.4735 4.98682 10.0008 4.98682C8.52801 4.98682 7.33411 6.32996 7.33411 7.98682C7.33411 9.64367 8.52801 10.9868 10.0008 10.9868Z" fill="#835AFD"/>
<path d="M19.7857 7.17119C18.6832 5.25307 17.2528 3.62369 15.6495 2.45885C13.8757 1.16885 11.9174 0.486816 9.98659 0.486816C8.21494 0.486816 6.47287 1.05635 4.80871 2.17947C3.11164 3.32463 1.57415 4.9976 0.238746 7.1515C0.0879907 7.39493 0.00496385 7.68328 0.000215679 7.97991C-0.0045325 8.27654 0.0692124 8.56807 0.21208 8.81744C1.31249 10.7548 2.72873 12.3865 4.30705 13.5354C6.08412 14.8306 7.99661 15.4868 9.98659 15.4868C11.9328 15.4868 13.8953 14.8104 15.6616 13.5312C17.264 12.3701 18.6915 10.7346 19.7899 8.80057C19.9278 8.55699 20.0007 8.274 20 7.98519C19.9993 7.69638 19.9249 7.41387 19.7857 7.17119ZM10.0008 12.4868C9.20964 12.4868 8.43629 12.2229 7.7785 11.7284C7.1207 11.234 6.60802 10.5312 6.30527 9.70889C6.00252 8.88662 5.92331 7.98182 6.07765 7.10891C6.23199 6.236 6.61295 5.43417 7.17235 4.80484C7.73176 4.1755 8.44449 3.74692 9.2204 3.57328C9.99632 3.39965 10.8006 3.48876 11.5315 3.82936C12.2624 4.16995 12.8871 4.74673 13.3266 5.48675C13.7661 6.22677 14.0007 7.0968 14.0007 7.98682C13.9995 9.17987 13.5777 10.3237 12.8278 11.1673C12.078 12.0109 11.0612 12.4855 10.0008 12.4868Z" fill="#835AFD"/>
</svg>
