<svg width="24" height="16" viewBox="0 0 24 16" fill="none" xmlns="http://www.w3.org/2000/svg">
<path d="M12.2496 10.9868C13.9064 10.9868 15.2496 9.64367 15.2496 7.98682C15.2496 6.32996 13.9064 4.98682 12.2496 4.98682C10.5927 4.98682 9.24959 6.32996 9.24959 7.98682C9.24959 9.64367 10.5927 10.9868 12.2496 10.9868Z" fill="#835AFD"/>
<path d="M23.2577 7.17119C22.0174 5.25307 20.4082 3.62369 18.6044 2.45885C16.609 1.16885 14.4058 0.486816 12.2337 0.486816C10.2405 0.486816 8.28068 1.05635 6.4085 2.17947C4.49928 3.32463 2.76959 4.9976 1.26725 7.1515C1.09765 7.39493 1.00424 7.68328 0.9989 7.97991C0.993558 8.27654 1.07652 8.56807 1.23725 8.81744C2.47522 10.7548 4.0685 12.3865 5.84412 13.5354C7.84334 14.8306 9.9949 15.4868 12.2337 15.4868C14.4232 15.4868 16.631 14.8104 18.618 13.5312C20.4208 12.3701 22.0268 10.7346 23.2624 8.80057C23.4176 8.55699 23.4996 8.274 23.4988 7.98519C23.498 7.69638 23.4143 7.41387 23.2577 7.17119ZM12.2496 12.4868C11.3596 12.4868 10.4895 12.2229 9.74953 11.7284C9.0095 11.234 8.43273 10.5312 8.09213 9.70889C7.75154 8.88662 7.66242 7.98182 7.83606 7.10891C8.00969 6.236 8.43827 5.43417 9.06761 4.80484C9.69695 4.1755 10.4988 3.74692 11.3717 3.57328C12.2446 3.39965 13.1494 3.48876 13.9717 3.82936C14.7939 4.16995 15.4967 4.74673 15.9912 5.48675C16.4857 6.22677 16.7496 7.0968 16.7496 7.98682C16.7482 9.17987 16.2737 10.3237 15.4301 11.1673C14.5864 12.0109 13.4426 12.4855 12.2496 12.4868Z" fill="#835AFD"/>
</svg>
