<svg width="194" height="63" viewBox="0 0 194 63" fill="none" xmlns="http://www.w3.org/2000/svg">
<path d="M29.2729 43.1167H22.208V38.6606H29.2729C30.3647 38.6606 31.2534 38.4829 31.939 38.1274C32.6245 37.7593 33.126 37.2515 33.4434 36.604C33.7607 35.9565 33.9194 35.2266 33.9194 34.4141C33.9194 33.5889 33.7607 32.8208 33.4434 32.1099C33.126 31.3989 32.6245 30.8276 31.939 30.396C31.2534 29.9644 30.3647 29.7485 29.2729 29.7485H24.1885V53H18.4756V25.2734H29.2729C31.4438 25.2734 33.3037 25.667 34.8525 26.4541C36.4141 27.2285 37.6074 28.3013 38.4326 29.6724C39.2578 31.0435 39.6704 32.6113 39.6704 34.376C39.6704 36.166 39.2578 37.7148 38.4326 39.0225C37.6074 40.3301 36.4141 41.3394 34.8525 42.0503C33.3037 42.7612 31.4438 43.1167 29.2729 43.1167ZM49.0586 32.3955V53H43.5552V32.3955H49.0586ZM43.2124 27.0254C43.2124 26.2256 43.4917 25.5654 44.0503 25.0449C44.6089 24.5244 45.3579 24.2642 46.2974 24.2642C47.2241 24.2642 47.9668 24.5244 48.5254 25.0449C49.0967 25.5654 49.3823 26.2256 49.3823 27.0254C49.3823 27.8252 49.0967 28.4854 48.5254 29.0059C47.9668 29.5264 47.2241 29.7866 46.2974 29.7866C45.3579 29.7866 44.6089 29.5264 44.0503 29.0059C43.4917 28.4854 43.2124 27.8252 43.2124 27.0254ZM62.103 49.0962C62.7759 49.0962 63.3726 48.9692 63.8931 48.7153C64.4136 48.4487 64.8198 48.0806 65.1118 47.6108C65.4165 47.1284 65.5752 46.5635 65.5879 45.916H70.7485C70.7358 47.3633 70.3486 48.6519 69.5869 49.7817C68.8252 50.8989 67.8032 51.7812 66.521 52.4287C65.2388 53.0635 63.8042 53.3809 62.2173 53.3809C60.6177 53.3809 59.2212 53.1143 58.0278 52.5811C56.8472 52.0479 55.8633 51.3115 55.0762 50.3721C54.2891 49.4199 53.6987 48.3154 53.3052 47.0586C52.9116 45.7891 52.7148 44.4307 52.7148 42.9834V42.4312C52.7148 40.9712 52.9116 39.6128 53.3052 38.356C53.6987 37.0864 54.2891 35.9819 55.0762 35.0425C55.8633 34.0903 56.8472 33.3477 58.0278 32.8145C59.2085 32.2812 60.5923 32.0146 62.1792 32.0146C63.8677 32.0146 65.3467 32.3384 66.6162 32.9858C67.8984 33.6333 68.9014 34.5601 69.625 35.7661C70.3613 36.9595 70.7358 38.375 70.7485 40.0127H65.5879C65.5752 39.3271 65.4292 38.7051 65.1499 38.1465C64.8833 37.5879 64.4897 37.1436 63.9692 36.8135C63.4614 36.4707 62.833 36.2993 62.084 36.2993C61.2842 36.2993 60.6304 36.4707 60.1226 36.8135C59.6147 37.1436 59.2212 37.6006 58.9419 38.1846C58.6626 38.7559 58.4658 39.4097 58.3516 40.146C58.25 40.8696 58.1992 41.6313 58.1992 42.4312V42.9834C58.1992 43.7832 58.25 44.5513 58.3516 45.2876C58.4531 46.0239 58.6436 46.6777 58.9229 47.249C59.2148 47.8203 59.6147 48.271 60.1226 48.6011C60.6304 48.9312 61.2905 49.0962 62.103 49.0962ZM82.4409 49.0962C83.1138 49.0962 83.7104 48.9692 84.231 48.7153C84.7515 48.4487 85.1577 48.0806 85.4497 47.6108C85.7544 47.1284 85.9131 46.5635 85.9258 45.916H91.0864C91.0737 47.3633 90.6865 48.6519 89.9248 49.7817C89.1631 50.8989 88.1411 51.7812 86.8589 52.4287C85.5767 53.0635 84.1421 53.3809 82.5552 53.3809C80.9556 53.3809 79.5591 53.1143 78.3657 52.5811C77.1851 52.0479 76.2012 51.3115 75.4141 50.3721C74.627 49.4199 74.0366 48.3154 73.6431 47.0586C73.2495 45.7891 73.0527 44.4307 73.0527 42.9834V42.4312C73.0527 40.9712 73.2495 39.6128 73.6431 38.356C74.0366 37.0864 74.627 35.9819 75.4141 35.0425C76.2012 34.0903 77.1851 33.3477 78.3657 32.8145C79.5464 32.2812 80.9302 32.0146 82.5171 32.0146C84.2056 32.0146 85.6846 32.3384 86.9541 32.9858C88.2363 33.6333 89.2393 34.5601 89.9629 35.7661C90.6992 36.9595 91.0737 38.375 91.0864 40.0127H85.9258C85.9131 39.3271 85.7671 38.7051 85.4878 38.1465C85.2212 37.5879 84.8276 37.1436 84.3071 36.8135C83.7993 36.4707 83.1709 36.2993 82.4219 36.2993C81.6221 36.2993 80.9683 36.4707 80.4604 36.8135C79.9526 37.1436 79.5591 37.6006 79.2798 38.1846C79.0005 38.7559 78.8037 39.4097 78.6895 40.146C78.5879 40.8696 78.5371 41.6313 78.5371 42.4312V42.9834C78.5371 43.7832 78.5879 44.5513 78.6895 45.2876C78.791 46.0239 78.9814 46.6777 79.2607 47.249C79.5527 47.8203 79.9526 48.271 80.4604 48.6011C80.9683 48.9312 81.6284 49.0962 82.4409 49.0962ZM99.6177 23.75V53H94.1333V23.75H99.6177ZM98.8369 41.9741H97.3325C97.3452 40.5396 97.5356 39.2192 97.9038 38.0132C98.272 36.7944 98.7988 35.7407 99.4844 34.8521C100.17 33.9507 100.989 33.2524 101.941 32.7573C102.906 32.2622 103.972 32.0146 105.14 32.0146C106.156 32.0146 107.076 32.1606 107.901 32.4526C108.739 32.7319 109.457 33.189 110.053 33.8237C110.663 34.4458 111.132 35.2646 111.462 36.2803C111.792 37.2959 111.958 38.5273 111.958 39.9746V53H106.435V39.9365C106.435 39.0225 106.302 38.3052 106.035 37.7847C105.781 37.2515 105.407 36.877 104.912 36.6611C104.429 36.4326 103.833 36.3184 103.122 36.3184C102.334 36.3184 101.662 36.4644 101.103 36.7563C100.557 37.0483 100.119 37.4546 99.7891 37.9751C99.459 38.4829 99.2178 39.0796 99.0654 39.7651C98.9131 40.4507 98.8369 41.187 98.8369 41.9741ZM128.315 48.0679V32.3955H133.8V53H128.639L128.315 48.0679ZM128.925 43.8403L130.543 43.8022C130.543 45.1733 130.385 46.4492 130.067 47.6299C129.75 48.7979 129.274 49.8135 128.639 50.6768C128.004 51.5273 127.205 52.1938 126.24 52.6763C125.275 53.146 124.139 53.3809 122.831 53.3809C121.828 53.3809 120.901 53.2412 120.051 52.9619C119.213 52.6699 118.489 52.2192 117.88 51.6099C117.283 50.9878 116.813 50.1943 116.471 49.2295C116.141 48.252 115.976 47.0776 115.976 45.7065V32.3955H121.46V45.7446C121.46 46.354 121.53 46.8682 121.669 47.2871C121.822 47.7061 122.031 48.0488 122.298 48.3154C122.564 48.582 122.875 48.7725 123.231 48.8867C123.599 49.001 124.005 49.0581 124.45 49.0581C125.58 49.0581 126.468 48.8296 127.116 48.3726C127.776 47.9155 128.239 47.2935 128.506 46.5063C128.785 45.7065 128.925 44.8179 128.925 43.8403Z" fill="black"/>
<circle cx="163.842" cy="28.2595" r="23.2595" fill="#835AFD"/>
<circle cx="177.45" cy="16.5506" r="11.5506" fill="#E73F5D"/>
<circle cx="150.551" cy="39.9682" r="11.5506" fill="#6F4BD8"/>
</svg>
