<svg width="168" height="75" viewBox="0 0 168 75" fill="none" xmlns="http://www.w3.org/2000/svg">
<path d="M92.0842 15.9024V8.73438C92.0842 5.56737 94.6516 3 97.8186 3H159.463C162.63 3 165.198 5.56737 165.198 8.73438V48.8751C165.198 52.0421 162.63 54.6094 159.463 54.6094H149.428L152.782 70.2603C153.075 71.6282 151.436 72.563 150.408 71.6141L135.092 57.4766H97.8186C94.6516 57.4766 92.0842 54.9093 92.0842 51.7422V48.8751" stroke="url(#paint0_linear_2_29)" stroke-width="4.30079"/>
<path d="M117.086 24.848L114.018 40.2735H109.775L110.061 38.7539C108.781 39.9199 107.204 40.5029 105.331 40.5029C104.126 40.5029 103.018 40.2257 102.005 39.6714C100.992 39.1171 100.179 38.3238 99.5675 37.2916C98.975 36.2403 98.6787 35.0074 98.6787 33.593C98.6787 31.8918 99.0514 30.3626 99.7969 29.0055C100.561 27.6292 101.594 26.5588 102.893 25.7942C104.193 25.0105 105.627 24.6187 107.194 24.6187C109.564 24.6187 111.237 25.3928 112.212 26.9411L112.613 24.848H117.086ZM106.707 36.8042C107.586 36.8042 108.37 36.594 109.058 36.1734C109.746 35.7338 110.281 35.1317 110.664 34.3671C111.046 33.6025 111.237 32.7233 111.237 31.7293C111.237 30.678 110.922 29.8465 110.291 29.2348C109.679 28.6232 108.819 28.3173 107.71 28.3173C106.831 28.3173 106.047 28.5372 105.359 28.9768C104.671 29.3973 104.136 29.9899 103.754 30.7544C103.371 31.519 103.18 32.3983 103.18 33.3923C103.18 34.4436 103.486 35.2751 104.098 35.8867C104.728 36.4984 105.598 36.8042 106.707 36.8042Z" fill="url(#paint1_linear_2_29)"/>
<path d="M122.632 40.5029C121.294 40.5029 120.023 40.3595 118.819 40.0728C117.634 39.767 116.707 39.3751 116.038 38.8973L117.758 35.6573C118.427 36.097 119.239 36.4506 120.195 36.7182C121.17 36.9858 122.145 37.1196 123.119 37.1196C124.133 37.1196 124.888 36.9954 125.385 36.7469C125.882 36.4793 126.13 36.1065 126.13 35.6287C126.13 35.2464 125.91 34.9692 125.471 34.7972C125.031 34.6252 124.324 34.4436 123.349 34.2524C122.24 34.0422 121.323 33.8128 120.596 33.5643C119.889 33.3158 119.268 32.9144 118.733 32.3601C118.217 31.7866 117.959 31.0125 117.959 30.0376C117.959 28.3364 118.666 27.008 120.08 26.0523C121.514 25.0965 123.387 24.6187 125.7 24.6187C126.77 24.6187 127.812 24.7333 128.825 24.9627C129.838 25.1921 130.698 25.5075 131.406 25.9089L129.8 29.1775C128.538 28.3938 127.019 28.0019 125.241 28.0019C124.266 28.0019 123.521 28.1453 123.005 28.432C122.508 28.7187 122.259 29.0819 122.259 29.5216C122.259 29.923 122.479 30.2192 122.919 30.4104C123.358 30.5824 124.094 30.7736 125.127 30.9838C126.216 31.1941 127.105 31.4235 127.793 31.6719C128.5 31.9013 129.112 32.2932 129.628 32.8475C130.144 33.4018 130.402 34.1568 130.402 35.1126C130.402 36.8329 129.676 38.1614 128.223 39.098C126.79 40.0346 124.926 40.5029 122.632 40.5029Z" fill="url(#paint2_linear_2_29)"/>
<path d="M142.595 31.5573L147.899 40.2735H142.71L139.04 34.2811L136.316 36.5462L135.57 40.2735H131.097L135.341 18.999H139.814L137.434 30.8978L144.831 24.848H150.652L142.595 31.5573Z" fill="url(#paint3_linear_2_29)"/>
<path d="M8.86963 33.6509H3.61621V30.3374H8.86963C9.68148 30.3374 10.3423 30.2052 10.8521 29.9409C11.3618 29.6672 11.7347 29.2896 11.9707 28.8081C12.2067 28.3267 12.3247 27.7839 12.3247 27.1797C12.3247 26.5661 12.2067 25.995 11.9707 25.4663C11.7347 24.9377 11.3618 24.5129 10.8521 24.1919C10.3423 23.8709 9.68148 23.7104 8.86963 23.7104H5.08887V41H0.84082V20.3828H8.86963C10.4839 20.3828 11.8669 20.6755 13.0186 21.2607C14.1797 21.8366 15.0671 22.6343 15.6807 23.6538C16.2943 24.6733 16.6011 25.8392 16.6011 27.1514C16.6011 28.4824 16.2943 29.6341 15.6807 30.6064C15.0671 31.5788 14.1797 32.3293 13.0186 32.8579C11.8669 33.3866 10.4839 33.6509 8.86963 33.6509ZM23.582 25.6787V41H19.4897V25.6787H23.582ZM19.2349 21.6855C19.2349 21.0908 19.4425 20.5999 19.8579 20.2129C20.2733 19.8258 20.8302 19.6323 21.5288 19.6323C22.2179 19.6323 22.7702 19.8258 23.1855 20.2129C23.6104 20.5999 23.8228 21.0908 23.8228 21.6855C23.8228 22.2803 23.6104 22.7712 23.1855 23.1582C22.7702 23.5452 22.2179 23.7388 21.5288 23.7388C20.8302 23.7388 20.2733 23.5452 19.8579 23.1582C19.4425 22.7712 19.2349 22.2803 19.2349 21.6855ZM33.2817 38.0972C33.7821 38.0972 34.2257 38.0028 34.6128 37.814C34.9998 37.6157 35.3019 37.342 35.519 36.9927C35.7456 36.634 35.8636 36.2139 35.873 35.7324H39.7104C39.701 36.8086 39.4131 37.7668 38.8467 38.6069C38.2803 39.4377 37.5203 40.0938 36.5669 40.5752C35.6134 41.0472 34.5467 41.2832 33.3667 41.2832C32.1772 41.2832 31.1388 41.085 30.2515 40.6885C29.3735 40.292 28.6419 39.7445 28.0566 39.0459C27.4714 38.3379 27.0324 37.5166 26.7397 36.582C26.4471 35.638 26.3008 34.6279 26.3008 33.5518V33.1411C26.3008 32.0555 26.4471 31.0454 26.7397 30.1108C27.0324 29.1668 27.4714 28.3455 28.0566 27.647C28.6419 26.939 29.3735 26.3867 30.2515 25.9902C31.1294 25.5938 32.1584 25.3955 33.3384 25.3955C34.5939 25.3955 35.6937 25.6362 36.6377 26.1177C37.5911 26.5991 38.3369 27.2882 38.875 28.1851C39.4225 29.0724 39.701 30.125 39.7104 31.3428H35.873C35.8636 30.833 35.755 30.3704 35.5474 29.9551C35.3491 29.5397 35.0565 29.2093 34.6694 28.9639C34.2918 28.709 33.8245 28.5815 33.2676 28.5815C32.6729 28.5815 32.1867 28.709 31.8091 28.9639C31.4315 29.2093 31.1388 29.5492 30.9312 29.9834C30.7235 30.4082 30.5771 30.8944 30.4922 31.4419C30.4167 31.98 30.3789 32.5464 30.3789 33.1411V33.5518C30.3789 34.1465 30.4167 34.7176 30.4922 35.2651C30.5677 35.8127 30.7093 36.2988 30.917 36.7236C31.1341 37.1484 31.4315 37.4836 31.8091 37.729C32.1867 37.9744 32.6776 38.0972 33.2817 38.0972ZM48.4048 38.0972C48.9051 38.0972 49.3488 38.0028 49.7358 37.814C50.1229 37.6157 50.425 37.342 50.6421 36.9927C50.8687 36.634 50.9867 36.2139 50.9961 35.7324H54.8335C54.8241 36.8086 54.5361 37.7668 53.9697 38.6069C53.4033 39.4377 52.6434 40.0938 51.6899 40.5752C50.7365 41.0472 49.6698 41.2832 48.4897 41.2832C47.3003 41.2832 46.2619 41.085 45.3745 40.6885C44.4966 40.292 43.765 39.7445 43.1797 39.0459C42.5944 38.3379 42.1554 37.5166 41.8628 36.582C41.5701 35.638 41.4238 34.6279 41.4238 33.5518V33.1411C41.4238 32.0555 41.5701 31.0454 41.8628 30.1108C42.1554 29.1668 42.5944 28.3455 43.1797 27.647C43.765 26.939 44.4966 26.3867 45.3745 25.9902C46.2524 25.5938 47.2814 25.3955 48.4614 25.3955C49.717 25.3955 50.8167 25.6362 51.7607 26.1177C52.7142 26.5991 53.46 27.2882 53.998 28.1851C54.5456 29.0724 54.8241 30.125 54.8335 31.3428H50.9961C50.9867 30.833 50.8781 30.3704 50.6704 29.9551C50.4722 29.5397 50.1795 29.2093 49.7925 28.9639C49.4149 28.709 48.9476 28.5815 48.3906 28.5815C47.7959 28.5815 47.3097 28.709 46.9321 28.9639C46.5545 29.2093 46.2619 29.5492 46.0542 29.9834C45.8465 30.4082 45.7002 30.8944 45.6152 31.4419C45.5397 31.98 45.502 32.5464 45.502 33.1411V33.5518C45.502 34.1465 45.5397 34.7176 45.6152 35.2651C45.6908 35.8127 45.8324 36.2988 46.04 36.7236C46.2572 37.1484 46.5545 37.4836 46.9321 37.729C47.3097 37.9744 47.8006 38.0972 48.4048 38.0972ZM61.1772 19.25V41H57.0991V19.25H61.1772ZM60.5967 32.8013H59.478C59.4875 31.7345 59.6291 30.7528 59.9028 29.856C60.1766 28.9497 60.5684 28.1662 61.0781 27.5054C61.5879 26.8351 62.1968 26.3159 62.9048 25.9478C63.6222 25.5796 64.4152 25.3955 65.2837 25.3955C66.0389 25.3955 66.7233 25.5041 67.3369 25.7212C67.96 25.9289 68.4933 26.2687 68.937 26.7407C69.3901 27.2033 69.7394 27.8122 69.9849 28.5674C70.2303 29.3226 70.353 30.2383 70.353 31.3145V41H66.2466V31.2861C66.2466 30.6064 66.1475 30.0731 65.9492 29.686C65.7604 29.2896 65.4819 29.0111 65.1138 28.8506C64.755 28.6807 64.3114 28.5957 63.7827 28.5957C63.1974 28.5957 62.6971 28.7043 62.2817 28.9214C61.8758 29.1385 61.5501 29.4406 61.3047 29.8276C61.0592 30.2052 60.8799 30.6489 60.7666 31.1587C60.6533 31.6685 60.5967 32.216 60.5967 32.8013ZM82.5166 37.3325V25.6787H86.5947V41H82.7573L82.5166 37.3325ZM82.9697 34.189L84.1733 34.1606C84.1733 35.1802 84.0553 36.1289 83.8193 37.0068C83.5833 37.8753 83.2293 38.6305 82.7573 39.2725C82.2853 39.9049 81.6906 40.4006 80.9731 40.7593C80.2557 41.1086 79.4108 41.2832 78.4385 41.2832C77.6927 41.2832 77.0036 41.1794 76.3711 40.9717C75.748 40.7546 75.21 40.4194 74.7568 39.9663C74.3132 39.5037 73.9639 38.9137 73.709 38.1963C73.4635 37.4694 73.3408 36.5962 73.3408 35.5767V25.6787H77.4189V35.605C77.4189 36.0581 77.4709 36.4404 77.5747 36.752C77.688 37.0635 77.8438 37.3184 78.042 37.5166C78.2402 37.7148 78.4715 37.8564 78.7358 37.9414C79.0096 38.0264 79.3117 38.0688 79.6421 38.0688C80.4823 38.0688 81.1431 37.8989 81.6245 37.5591C82.1154 37.2192 82.46 36.7567 82.6582 36.1714C82.8659 35.5767 82.9697 34.9159 82.9697 34.189Z" fill="black"/>
<defs>
<linearGradient id="paint0_linear_2_29" x1="92.0842" y1="3" x2="152.295" y2="77.547" gradientUnits="userSpaceOnUse">
<stop stop-color="#485BFF"/>
<stop offset="1" stop-color="#FF59F8"/>
</linearGradient>
<linearGradient id="paint1_linear_2_29" x1="98.6787" y1="18.999" x2="110.758" y2="53.1105" gradientUnits="userSpaceOnUse">
<stop stop-color="#485BFF"/>
<stop offset="1" stop-color="#FF59F8"/>
</linearGradient>
<linearGradient id="paint2_linear_2_29" x1="98.6787" y1="18.999" x2="110.758" y2="53.1105" gradientUnits="userSpaceOnUse">
<stop stop-color="#485BFF"/>
<stop offset="1" stop-color="#FF59F8"/>
</linearGradient>
<linearGradient id="paint3_linear_2_29" x1="98.6787" y1="18.999" x2="110.758" y2="53.1105" gradientUnits="userSpaceOnUse">
<stop stop-color="#485BFF"/>
<stop offset="1" stop-color="#FF59F8"/>
</linearGradient>
</defs>
</svg>
